<svg width="24" height="20" viewBox="0 0 24 20" fill="none" xmlns="http://www.w3.org/2000/svg">
<path d="M23.2422 9.98047C23.2422 10.6836 22.6562 11.2344 21.9922 11.2344H20.7422L20.7695 17.4922C20.7695 17.5977 20.7617 17.7031 20.75 17.8086V18.4375C20.75 19.3008 20.0508 20 19.1875 20H18.5625C18.5195 20 18.4766 20 18.4336 19.9961C18.3789 20 18.3242 20 18.2695 20H17H16.0625C15.1992 20 14.5 19.3008 14.5 18.4375V17.5V15C14.5 14.3086 13.9414 13.75 13.25 13.75H10.75C10.0586 13.75 9.5 14.3086 9.5 15V17.5V18.4375C9.5 19.3008 8.80078 20 7.9375 20H7H5.75391C5.69531 20 5.63672 19.9961 5.57812 19.9922C5.53125 19.9961 5.48438 20 5.4375 20H4.8125C3.94922 20 3.25 19.3008 3.25 18.4375V14.0625C3.25 14.0273 3.25 13.9883 3.25391 13.9531V11.2344H2C1.29688 11.2344 0.75 10.6875 0.75 9.98047C0.75 9.62891 0.867188 9.31641 1.14062 9.04297L11.1562 0.3125C11.4297 0.0390625 11.7422 0 12.0156 0C12.2891 0 12.6016 0.078125 12.8359 0.273438L22.8125 9.04297C23.125 9.31641 23.2812 9.62891 23.2422 9.98047Z" fill="#4A3428"/>
</svg>
