<svg width="21" height="20" viewBox="0 0 21 20" fill="none" xmlns="http://www.w3.org/2000/svg">
<path d="M20.3438 1.25C20.3438 5.6875 17.0391 9.35547 12.7578 9.92188C12.4805 7.83594 11.5625 5.95312 10.207 4.48047C11.7031 1.80859 14.5625 0 17.8438 0H19.0938C19.7852 0 20.3438 0.558594 20.3438 1.25ZM0.34375 3.75C0.34375 3.05859 0.902344 2.5 1.59375 2.5H2.84375C7.67578 2.5 11.5938 6.41797 11.5938 11.25V12.5V18.75C11.5938 19.4414 11.0352 20 10.3438 20C9.65234 20 9.09375 19.4414 9.09375 18.75V12.5C4.26172 12.5 0.34375 8.58203 0.34375 3.75Z" fill="#4A3428"/>
</svg>
