<svg width="19" height="20" viewBox="0 0 19 20" fill="none" xmlns="http://www.w3.org/2000/svg">
<path d="M12.5469 5C12.5469 4.1712 12.2176 3.37634 11.6316 2.79029C11.0455 2.20424 10.2507 1.875 9.42188 1.875C8.59307 1.875 7.79822 2.20424 7.21217 2.79029C6.62612 3.37634 6.29688 4.1712 6.29688 5C6.29688 5.8288 6.62612 6.62366 7.21217 7.20971C7.79822 7.79576 8.59307 8.125 9.42188 8.125C10.2507 8.125 11.0455 7.79576 11.6316 7.20971C12.2176 6.62366 12.5469 5.8288 12.5469 5ZM4.42188 5C4.42188 3.67392 4.94866 2.40215 5.88634 1.46447C6.82402 0.526784 8.09579 0 9.42188 0C10.748 0 12.0197 0.526784 12.9574 1.46447C13.8951 2.40215 14.4219 3.67392 14.4219 5C14.4219 6.32608 13.8951 7.59785 12.9574 8.53553C12.0197 9.47322 10.748 10 9.42188 10C8.09579 10 6.82402 9.47322 5.88634 8.53553C4.94866 7.59785 4.42188 6.32608 4.42188 5ZM2.59766 18.125H16.2461C15.8984 15.6523 13.7734 13.75 11.207 13.75H7.63672C5.07031 13.75 2.94531 15.6523 2.59766 18.125ZM0.671875 18.8398C0.671875 14.9922 3.78906 11.875 7.63672 11.875H11.207C15.0547 11.875 18.1719 14.9922 18.1719 18.8398C18.1719 19.4805 17.6523 20 17.0117 20H1.83203C1.19141 20 0.671875 19.4805 0.671875 18.8398Z" fill="black"/>
</svg>
