<svg width="21" height="20" viewBox="0 0 21 20" fill="none" xmlns="http://www.w3.org/2000/svg">
<path d="M3.98438 0C3.46484 0 3.04688 0.417969 3.04688 0.9375C3.04688 2.45703 3.96094 3.25781 4.57422 3.79297L4.61719 3.83203C5.25391 4.38672 5.54688 4.68359 5.54688 5.3125C5.54688 5.83203 5.96484 6.25 6.48438 6.25C7.00391 6.25 7.42188 5.83203 7.42188 5.3125C7.42188 3.79297 6.50781 2.99219 5.89453 2.45703L5.85156 2.41797C5.21484 1.86328 4.92188 1.56641 4.92188 0.9375C4.92188 0.417969 4.50391 0 3.98438 0ZM1.79688 7.5C1.10547 7.5 0.546875 8.05859 0.546875 8.75V16.25C0.546875 18.3203 2.22656 20 4.29688 20H11.7969C13.8672 20 15.5469 18.3203 15.5469 16.25H16.1719C18.5898 16.25 20.5469 14.293 20.5469 11.875C20.5469 9.45703 18.5898 7.5 16.1719 7.5H14.2969H1.79688ZM15.5469 10H16.1719C17.207 10 18.0469 10.8398 18.0469 11.875C18.0469 12.9102 17.207 13.75 16.1719 13.75H15.5469V10ZM9.29688 0.9375C9.29688 0.417969 8.87891 0 8.35938 0C7.83984 0 7.42188 0.417969 7.42188 0.9375C7.42188 2.45703 8.33594 3.25781 8.94922 3.79297L8.99219 3.83203C9.62891 4.38672 9.92188 4.68359 9.92188 5.3125C9.92188 5.83203 10.3398 6.25 10.8594 6.25C11.3789 6.25 11.7969 5.83203 11.7969 5.3125C11.7969 3.79297 10.8828 2.99219 10.2695 2.45703L10.2266 2.41797C9.58984 1.86328 9.29688 1.56641 9.29688 0.9375Z" fill="#8B7355"/>
</svg>
