<svg width="21" height="20" viewBox="0 0 21 20" fill="none" xmlns="http://www.w3.org/2000/svg">
<path d="M20.9062 1.25C20.9062 5.6875 17.6016 9.35547 13.3203 9.92188C13.043 7.83594 12.125 5.95312 10.7695 4.48047C12.2656 1.80859 15.125 0 18.4062 0H19.6562C20.3477 0 20.9062 0.558594 20.9062 1.25ZM0.90625 3.75C0.90625 3.05859 1.46484 2.5 2.15625 2.5H3.40625C8.23828 2.5 12.1562 6.41797 12.1562 11.25V12.5V18.75C12.1562 19.4414 11.5977 20 10.9062 20C10.2148 20 9.65625 19.4414 9.65625 18.75V12.5C4.82422 12.5 0.90625 8.58203 0.90625 3.75Z" fill="#8B7355"/>
</svg>
